<svg width="50" height="50" viewBox="0 0 50 50" fill="none" xmlns="http://www.w3.org/2000/svg">
<rect width="50" height="50" rx="19" fill="#4DADF7"/>
<path d="M17 34H18V21H17C16.4696 21 15.9609 21.2107 15.5858 21.5858C15.2107 21.9609 15 22.4696 15 23V32C15 32.5304 15.2107 33.0391 15.5858 33.4142C15.9609 33.7893 16.4696 34 17 34ZM33 21H26L27.122 17.632C27.2221 17.3314 27.2494 17.0113 27.2016 16.6982C27.1538 16.385 27.0322 16.0876 26.847 15.8306C26.6617 15.5736 26.4181 15.3642 26.1361 15.2198C25.8541 15.0754 25.5418 15.0001 25.225 15H25L20 20.438V34H31L34.912 25.404L35 25V23C35 22.4696 34.7893 21.9609 34.4142 21.5858C34.0391 21.2107 33.5304 21 33 21Z" fill="white"/>
</svg>
