<svg width="50" height="50" viewBox="0 0 50 50" fill="none" xmlns="http://www.w3.org/2000/svg">
<rect width="50" height="50" rx="19" fill="#F03E3D"/>
<path d="M34 25.22C34 19.73 29.74 16 25 16C20.31 16 16 19.65 16 25.28C15.4 25.62 15 26.26 15 27V29C15 30.1 15.9 31 17 31C17.55 31 18 30.55 18 30V25.19C18 21.36 20.95 18.01 24.78 17.9C25.7174 17.8715 26.6509 18.0314 27.5253 18.3703C28.3997 18.7093 29.1972 19.2202 29.8705 19.873C30.5438 20.5258 31.0792 21.3071 31.445 22.1706C31.8108 23.0341 31.9995 23.9622 32 24.9V32H25C24.45 32 24 32.45 24 33C24 33.55 24.45 34 25 34H32C33.1 34 34 33.1 34 32V30.78C34.59 30.47 35 29.86 35 29.14V26.84C35 26.14 34.59 25.53 34 25.22Z" fill="white"/>
<path d="M22 27C22.5523 27 23 26.5523 23 26C23 25.4477 22.5523 25 22 25C21.4477 25 21 25.4477 21 26C21 26.5523 21.4477 27 22 27Z" fill="white"/>
<path d="M28 27C28.5523 27 29 26.5523 29 26C29 25.4477 28.5523 25 28 25C27.4477 25 27 25.4477 27 26C27 26.5523 27.4477 27 28 27Z" fill="white"/>
<path d="M31 24.03C30.7616 22.6241 30.0334 21.348 28.9445 20.4274C27.8555 19.5068 26.4759 19.0012 25.05 19C22.02 19 18.76 21.51 19.02 25.45C20.2531 24.9454 21.3422 24.1435 22.1902 23.1158C23.0382 22.0881 23.6187 20.8665 23.88 19.56C25.19 22.19 27.88 24 31 24.03Z" fill="white"/>
</svg>
